<svg width="100%" viewBox="0 0 680 680" xmlns="http://www.w3.org/2000/svg">
<defs><marker id="a" viewBox="0 0 10 10" refX="8" refY="5" markerWidth="6" markerHeight="6" orient="auto-start-reverse"><path d="M2 1L8 5L2 9" fill="none" stroke="context-stroke" stroke-width="1.5" stroke-linecap="round" stroke-linejoin="round"/></marker></defs>
<rect width="680" height="680" rx="14" fill="#f7f8fc" stroke="none"/>
<text font-family="Segoe UI,sans-serif" font-size="15" font-weight="700" fill="#1a1a2e" x="340" y="28" text-anchor="middle" dominant-baseline="central">Frontend architecture — React</text>
<rect x="240" y="46" width="200" height="42" rx="8" fill="#F1EFE8" stroke="#888780" stroke-width="0.5"/><text font-family="Segoe UI,sans-serif" font-size="13" font-weight="700" fill="#2C2C2A" x="340" y="63" text-anchor="middle" dominant-baseline="central">index.js</text><text font-family="Segoe UI,sans-serif" font-size="11" fill="#5F5E5A" x="340" y="79" text-anchor="middle" dominant-baseline="central">ReactDOM.createRoot — mounts App</text>
<line x1="340" y1="88" x2="340" y2="106" stroke="#888780" stroke-width="0.8" marker-end="url(#a)"/>
<rect x="160" y="106" width="360" height="52" rx="8" fill="#EEEDFE" stroke="#534AB7" stroke-width="0.8"/><text font-family="Segoe UI,sans-serif" font-size="13" font-weight="700" fill="#3C3489" x="340" y="124" text-anchor="middle" dominant-baseline="central">App.js</text><text font-family="Segoe UI,sans-serif" font-size="11" fill="#534AB7" x="340" y="140" text-anchor="middle" dominant-baseline="central">BrowserRouter · Routes · wraps AuthProvider</text>
<path d="M240 158 L240 172 L130 172 L130 186" fill="none" stroke="#534AB7" stroke-width="0.7" marker-end="url(#a)"/>
<line x1="340" y1="158" x2="340" y2="186" fill="none" stroke="#534AB7" stroke-width="0.7" marker-end="url(#a)"/>
<path d="M440 158 L440 172 L554 172 L554 186" fill="none" stroke="#534AB7" stroke-width="0.7" marker-end="url(#a)"/>
<rect x="44" y="186" width="172" height="52" rx="8" fill="#EEEDFE" stroke="#534AB7" stroke-width="0.8"/><text font-family="Segoe UI,sans-serif" font-size="12" font-weight="700" fill="#3C3489" x="130" y="204" text-anchor="middle" dominant-baseline="central">AuthContext.js</text><text font-family="Segoe UI,sans-serif" font-size="10" fill="#534AB7" x="130" y="220" text-anchor="middle" dominant-baseline="central">user · token · isAdmin · isManager</text>
<rect x="254" y="186" width="172" height="52" rx="8" fill="#EEEDFE" stroke="#534AB7" stroke-width="0.8"/><text font-family="Segoe UI,sans-serif" font-size="12" font-weight="700" fill="#3C3489" x="340" y="204" text-anchor="middle" dominant-baseline="central">ProtectedRoute.js</text><text font-family="Segoe UI,sans-serif" font-size="10" fill="#534AB7" x="340" y="220" text-anchor="middle" dominant-baseline="central">auth check · role level guard</text>
<rect x="464" y="186" width="172" height="52" rx="8" fill="#EEEDFE" stroke="#534AB7" stroke-width="0.8"/><text font-family="Segoe UI,sans-serif" font-size="12" font-weight="700" fill="#3C3489" x="550" y="204" text-anchor="middle" dominant-baseline="central">Navbar.js</text><text font-family="Segoe UI,sans-serif" font-size="10" fill="#534AB7" x="550" y="220" text-anchor="middle" dominant-baseline="central">role-aware links · logout</text>
<line x1="340" y1="238" x2="340" y2="256" stroke="#534AB7" stroke-width="0.7" marker-end="url(#a)"/>
<rect x="44" y="256" width="592" height="22" rx="6" fill="#CECBF6" stroke="#534AB7" stroke-width="0.5"/><text font-family="Segoe UI,sans-serif" font-size="11" font-weight="600" fill="#3C3489" x="340" y="267" text-anchor="middle" dominant-baseline="central">Pages — each wrapped in ProtectedRoute</text>
<rect x="51" y="290" width="88" height="54" rx="7" fill="#EEEDFE" stroke="#534AB7" stroke-width="0.8"/><text font-family="Segoe UI,sans-serif" font-size="11" font-weight="700" fill="#3C3489" x="95" y="310" text-anchor="middle" dominant-baseline="central">Login.js</text><text font-family="Segoe UI,sans-serif" font-size="10" fill="#534AB7" x="95" y="326" text-anchor="middle" dominant-baseline="central">Register.js</text><rect x="51" y="340" width="88" height="14" rx="3" fill="#C0DD97" stroke="none"/><text font-family="Segoe UI,sans-serif" font-size="9" font-weight="600" fill="#27500A" x="95" y="347" text-anchor="middle" dominant-baseline="central">public</text>
<rect x="149" y="290" width="88" height="54" rx="7" fill="#EEEDFE" stroke="#534AB7" stroke-width="0.8"/><text font-family="Segoe UI,sans-serif" font-size="11" font-weight="700" fill="#3C3489" x="193" y="313" text-anchor="middle" dominant-baseline="central">Dashboard.js</text><rect x="149" y="340" width="88" height="14" rx="3" fill="#B5D4F4" stroke="none"/><text font-family="Segoe UI,sans-serif" font-size="9" font-weight="600" fill="#0C447C" x="193" y="347" text-anchor="middle" dominant-baseline="central">any auth</text>
<rect x="247" y="290" width="88" height="54" rx="7" fill="#EEEDFE" stroke="#534AB7" stroke-width="0.8"/><text font-family="Segoe UI,sans-serif" font-size="11" font-weight="700" fill="#3C3489" x="291" y="313" text-anchor="middle" dominant-baseline="central">FileList.js</text><rect x="247" y="340" width="88" height="14" rx="3" fill="#B5D4F4" stroke="none"/><text font-family="Segoe UI,sans-serif" font-size="9" font-weight="600" fill="#0C447C" x="291" y="347" text-anchor="middle" dominant-baseline="central">any auth</text>
<rect x="345" y="290" width="88" height="54" rx="7" fill="#EEEDFE" stroke="#534AB7" stroke-width="0.8"/><text font-family="Segoe UI,sans-serif" font-size="11" font-weight="700" fill="#3C3489" x="389" y="313" text-anchor="middle" dominant-baseline="central">FileUpload.js</text><rect x="345" y="340" width="88" height="14" rx="3" fill="#FAC775" stroke="none"/><text font-family="Segoe UI,sans-serif" font-size="9" font-weight="600" fill="#633806" x="389" y="347" text-anchor="middle" dominant-baseline="central">manager+</text>
<rect x="443" y="290" width="88" height="54" rx="7" fill="#EEEDFE" stroke="#534AB7" stroke-width="0.8"/><text font-family="Segoe UI,sans-serif" font-size="11" font-weight="700" fill="#3C3489" x="487" y="313" text-anchor="middle" dominant-baseline="central">AdminPanel.js</text><rect x="443" y="340" width="88" height="14" rx="3" fill="#F7C1C1" stroke="none"/><text font-family="Segoe UI,sans-serif" font-size="9" font-weight="600" fill="#791F1F" x="487" y="347" text-anchor="middle" dominant-baseline="central">admin only</text>
<rect x="541" y="290" width="95" height="54" rx="7" fill="#F1EFE8" stroke="#888780" stroke-width="0.8"/><text font-family="Segoe UI,sans-serif" font-size="11" font-weight="700" fill="#2C2C2A" x="588" y="310" text-anchor="middle" dominant-baseline="central">styles.css</text><text font-family="Segoe UI,sans-serif" font-size="10" fill="#5F5E5A" x="588" y="328" text-anchor="middle" dominant-baseline="central">global dark theme</text>
<line x1="340" y1="354" x2="340" y2="378" stroke="#888780" stroke-width="0.7" marker-end="url(#a)"/>
<rect x="140" y="378" width="400" height="52" rx="8" fill="#F1EFE8" stroke="#888780" stroke-width="0.8"/><text font-family="Segoe UI,sans-serif" font-size="13" font-weight="700" fill="#2C2C2A" x="340" y="396" text-anchor="middle" dominant-baseline="central">utils/api.js</text><text font-family="Segoe UI,sans-serif" font-size="11" fill="#5F5E5A" x="340" y="412" text-anchor="middle" dominant-baseline="central">Axios instance · JWT interceptor · auto 401 logout</text>
<path d="M220 430 L220 450 L116 450 L116 466" fill="none" stroke="#888780" stroke-width="0.7" marker-end="url(#a)"/>
<line x1="340" y1="430" x2="340" y2="466" stroke="#888780" stroke-width="0.7" marker-end="url(#a)"/>
<path d="M460 430 L460 450 L564 450 L564 466" fill="none" stroke="#888780" stroke-width="0.7" marker-end="url(#a)"/>
<rect x="44" y="466" width="144" height="64" rx="8" fill="#F1EFE8" stroke="#888780" stroke-width="0.8"/><text font-family="Segoe UI,sans-serif" font-size="12" font-weight="700" fill="#2C2C2A" x="116" y="484" text-anchor="middle" dominant-baseline="central">authAPI</text><text font-family="Segoe UI,sans-serif" font-size="10" fill="#5F5E5A" x="116" y="500" text-anchor="middle" dominant-baseline="central">login · register</text><text font-family="Segoe UI,sans-serif" font-size="10" fill="#5F5E5A" x="116" y="516" text-anchor="middle" dominant-baseline="central">me · change-password</text>
<rect x="268" y="466" width="144" height="64" rx="8" fill="#F1EFE8" stroke="#888780" stroke-width="0.8"/><text font-family="Segoe UI,sans-serif" font-size="12" font-weight="700" fill="#2C2C2A" x="340" y="484" text-anchor="middle" dominant-baseline="central">filesAPI</text><text font-family="Segoe UI,sans-serif" font-size="10" fill="#5F5E5A" x="340" y="500" text-anchor="middle" dominant-baseline="central">upload · list · delete</text><text font-family="Segoe UI,sans-serif" font-size="10" fill="#5F5E5A" x="340" y="516" text-anchor="middle" dominant-baseline="central">download · update</text>
<rect x="492" y="466" width="144" height="64" rx="8" fill="#F1EFE8" stroke="#888780" stroke-width="0.8"/><text font-family="Segoe UI,sans-serif" font-size="12" font-weight="700" fill="#2C2C2A" x="564" y="484" text-anchor="middle" dominant-baseline="central">adminAPI</text><text font-family="Segoe UI,sans-serif" font-size="10" fill="#5F5E5A" x="564" y="500" text-anchor="middle" dominant-baseline="central">getUsers · updateRole</text><text font-family="Segoe UI,sans-serif" font-size="10" fill="#5F5E5A" x="564" y="516" text-anchor="middle" dominant-baseline="central">getStats · getAllFiles</text>
<path d="M116 530 L116 560 L340 560 L340 580" fill="none" stroke="#0F6E56" stroke-width="0.7" marker-end="url(#a)"/>
<line x1="340" y1="530" x2="340" y2="580" stroke="#0F6E56" stroke-width="0.7" marker-end="url(#a)"/>
<path d="M564 530 L564 560 L340 560" fill="none" stroke="#0F6E56" stroke-width="0.7"/>
<rect x="140" y="580" width="400" height="42" rx="8" fill="#E1F5EE" stroke="#0F6E56" stroke-width="0.8"/><text font-family="Segoe UI,sans-serif" font-size="12" font-weight="700" fill="#085041" x="340" y="597" text-anchor="middle" dominant-baseline="central">Backend API</text><text font-family="Segoe UI,sans-serif" font-size="10" fill="#0F6E56" x="340" y="613" text-anchor="middle" dominant-baseline="central">http://localhost:5000/api — Authorization: Bearer token</text>
<rect x="44" y="638" width="12" height="12" rx="2" fill="#EEEDFE" stroke="#534AB7" stroke-width="0.8"/><text font-family="Segoe UI,sans-serif" font-size="10" fill="#444441" x="62" y="644" dominant-baseline="central">React component</text>
<rect x="180" y="638" width="12" height="12" rx="2" fill="#F1EFE8" stroke="#888780" stroke-width="0.8"/><text font-family="Segoe UI,sans-serif" font-size="10" fill="#444441" x="198" y="644" dominant-baseline="central">Utility</text>
<rect x="270" y="638" width="12" height="12" rx="2" fill="#E1F5EE" stroke="#0F6E56" stroke-width="0.8"/><text font-family="Segoe UI,sans-serif" font-size="10" fill="#444441" x="288" y="644" dominant-baseline="central">Backend boundary</text>
<rect x="420" y="638" width="12" height="12" rx="2" fill="#FAC775" stroke="none"/><text font-family="Segoe UI,sans-serif" font-size="10" fill="#444441" x="438" y="644" dominant-baseline="central">manager+ required</text>
<rect x="556" y="638" width="12" height="12" rx="2" fill="#F7C1C1" stroke="none"/><text font-family="Segoe UI,sans-serif" font-size="10" fill="#444441" x="574" y="644" dominant-baseline="central">admin only</text>
<text font-family="Segoe UI,sans-serif" font-size="10" fill="#888780" x="340" y="665" text-anchor="middle" dominant-baseline="central">src/context/ · src/utils/ · src/components/ · src/pages/</text>
</svg>
